:SAMPLES-PER-SECOND 30
:FULLY-SPECIFIED
:DEGREES
19
root  89.4014 39.1863 -4.05233 -145.308 -85.9008 142.968
RightUpLeg  -3.26236 -5.26638 -4.44601
RightLeg  10.4848 5.82812 -0.419517
RightFoot  -5.76337 -0.0264941 -0.257805
RightToes  -3.0268e-009 0 -3.6325e-017
Spine  1.21174 2.03032 1.41566
Spine1  4.94786 2.43228 -1.43589
HEad  -12.4429 -4.80909 -5.58906
LeftShoulder1  -0.517118 4.79382 -33.9285
LeftArm  4.99719 6.50058 -41.2034
LeftForeArm  33.6075 -14.9473 -7.28647
LeftHand  -0.0477985 -6.74832 0.709635
RightShoulder  -1.35801 -6.96281 32.7376
RightArm  20.758 1.12069 44.9679
RightForeArm  16.9734 11.1322 7.99638
RightHand  -0.0102813 3.7779 -0.384117
LeftUpLeg  1.45536 5.77211 -0.0137642
LeftLeg  4.29202 1.31215 -0.183237
LeftFoot  -3.92924 -0.132999 2.42011
LeftToes  2.52475e-009 -1.26109e-010 3.16044e-011
20
root  89.3424 39.1787 -4.14607 -141.377 -85.9756 138.722
RightUpLeg  -2.91029 -4.86439 -4.46158
RightLeg  10.7769 5.08239 -0.565855
RightFoot  -6.30792 -0.0294053 -0.309853
RightToes  -3.0268e-009 0 -3.6325e-017
Spine  1.53436 2.02811 1.34039
Spine1  5.0474 2.41167 -1.36366
HEad  -12.544 -5.50496 -5.63101
LeftShoulder1  -0.511358 4.77313 -34.1252
LeftArm  4.711 6.12614 -41.0762
LeftForeArm  30.6552 -14.4136 -7.66979
LeftHand  -0.13392 9.6685 -2.11328
RightShoulder  -1.37838 -7.0158 32.729
RightArm  20.6573 1.00185 44.9451
RightForeArm  16.9747 10.9336 8.05485
RightHand  -0.007915 3.63955 -0.383207
LeftUpLeg  1.80295 5.81065 -0.0236501
LeftLeg  4.45559 0.971727 -0.150752
LeftFoot  -3.98994 -0.116468 2.18761
LeftToes  2.52475e-009 -1.26109e-010 3.16044e-011
21
root  89.2438 39.1529 -4.22625 -135.218 -86.3039 132.653
RightUpLeg  -2.99742 -4.84177 -4.47822
RightLeg  11.3336 4.50349 -0.547201
RightFoot  -6.99791 -0.0259685 -0.563607
RightToes  -3.0268e-009 0 -3.6325e-017
Spine  1.34377 1.86619 1.55886
Spine1  5.10675 2.25858 -1.39704
HEad  -12.1701 -4.83022 -5.68805
LeftShoulder1  -0.507406 4.76339 -34.1258
LeftArm  5.7927 6.26568 -41.2239
LeftForeArm  30.3096 -14.8219 -7.59553
LeftHand  -0.0713981 8.62014 -0.802613
RightShoulder  -1.37525 -7.00534 32.755
RightArm  20.5132 0.687503 44.8023
RightForeArm  16.7732 10.946 8.01808
RightHand  -0.052214 2.31566 -0.965765
LeftUpLeg  1.7513 5.57314 -0.106702
LeftLeg  4.55677 0.706144 0.0207964
LeftFoot  -4.2852 -0.101844 2.07161
LeftToes  2.52475e-009 -1.26109e-010 3.16044e-011
22
root  89.0905 39.1459 -4.32815 -131.92 -86.4483 129.386
RightUpLeg  -2.7978 -5.05194 -4.38365
RightLeg  11.5402 4.40276 -0.537359
RightFoot  -7.58074 -0.0343049 -0.513356
RightToes  -3.0268e-009 0 -3.6325e-017
Spine  0.853915 1.93603 1.92702
Spine1  5.51871 2.35893 -1.44613
HEad  -11.4989 -5.10871 -6.19024
LeftShoulder1  -0.527871 4.82524 -33.7888
LeftArm  4.85918 6.35857 -41.6885
LeftForeArm  30.4346 -14.5725 -7.60363
LeftHand  -0.082011 9.60801 -0.869014
RightShoulder  -1.41277 -7.07693 33.0184
RightArm  20.9397 0.461993 44.3572
RightForeArm  16.6757 11.0456 8.06053
RightHand  -0.0302785 2.45524 -0.648312
LeftUpLeg  1.87458 5.49436 0.00287253
LeftLeg  4.70758 0.501211 0.136932
LeftFoot  -4.5412 -0.0755231 1.72875
LeftToes  2.52475e-009 -1.26109e-010 3.16044e-011
23
root  88.9535 39.1201 -4.45184 -125.122 -86.8837 122.467
RightUpLeg  -2.47555 -5.33596 -4.21464
RightLeg  11.8731 4.03041 -0.481756
RightFoot  -8.11502 -0.040787 -0.505841
RightToes  -3.0268e-009 0 -3.6325e-017
Spine  1.07089 1.76162 2.47869
Spine1  5.40454 2.21949 -1.55254
HEad  -11.2077 -5.45078 -6.47057
LeftShoulder1  -0.523372 4.81463 -33.7734
LeftArm  3.06311 6.43404 -41.8292
LeftForeArm  31.0613 -13.9393 -7.69693
LeftHand  -0.0951723 11.5342 -0.592445
RightShoulder  -1.41127 -7.05833 33.1765
RightArm  20.824 0.217999 44.1065
RightForeArm  16.8018 10.8989 8.08564
RightHand  -0.0553186 2.48786 -1.01399
LeftUpLeg  1.84282 5.35261 0.204291
LeftLeg  5.40312 0.0368053 0.36007
LeftFoot  -5.10452 -0.0428472 1.35454
LeftToes  2.52475e-009 -1.26109e-010 3.16044e-011
24
root  88.8231 39.0858 -4.61466 -127.21 -87.0156 124.471
RightUpLeg  -2.32414 -5.05287 -3.72116
RightLeg  12.1931 3.77966 -0.551182
RightFoot  -8.29127 -0.0282644 -1.03658
RightToes  -3.0268e-009 0 -3.6325e-017
Spine  1.0936 1.88986 3.01145
Spine1  5.60505 2.3444 -1.42828
HEad  -10.9139 -5.77141 -5.93341
LeftShoulder1  -0.525483 4.80689 -34.1665
LeftArm  4.36581 6.60511 -41.5271
LeftForeArm  30.4481 -14.6703 -7.45964
LeftHand  -0.0734715 8.93077 -0.738016
RightShoulder  -1.37414 -6.99392 32.8499
RightArm  20.3858 0.11674 44.3659
RightForeArm  16.7815 10.6437 8.11201
RightHand  -0.0865806 2.95953 -1.43334
LeftUpLeg  1.47643 5.46817 0.676007
LeftLeg  6.76299 -0.123936 0.404856
LeftFoot  -5.70839 -0.0231109 1.17033
LeftToes  2.52475e-009 -1.26109e-010 3.16044e-011
25
root  88.7027 38.9898 -4.75334 -117.129 -87.6195 113.92
RightUpLeg  -1.98643 -5.44578 -3.41173
RightLeg  13.2344 3.55868 -0.404478
RightFoot  -9.04716 -0.0379057 -1.20815
RightToes  -3.0268e-009 0 -3.6325e-017
Spine  2.05294 1.5952 3.9097
Spine1  5.27269 2.13724 -1.44164
HEad  -11.1501 -5.06577 -6.17511
LeftShoulder1  -0.553904 4.88478 -33.9477
LeftArm  3.06998 6.59055 -41.7727
LeftForeArm  31.1929 -14.1641 -7.54415
LeftHand  -0.0731156 8.78212 -0.819295
RightShoulder  -1.40541 -7.06167 32.9806
RightArm  20.3455 0.448347 44.3698
RightForeArm  16.8669 10.1856 8.30746
RightHand  -0.0992269 2.80654 -1.64492
LeftUpLeg  0.983851 4.60913 1.05103
LeftLeg  9.04834 -0.0942024 0.672884
LeftFoot  -6.91717 0.0123667 0.747453
LeftToes  2.52475e-009 -1.26109e-010 3.16044e-011
26
root  88.6 38.8001 -4.87815 -107.793 -88.5157 104.14
RightUpLeg  -2.05334 -5.88018 -2.59501
RightLeg  14.9564 3.34348 -0.128823
RightFoot  -10.1283 -0.0480156 -1.84985
RightToes  -3.0268e-009 0 -3.6325e-017
Spine  2.56165 1.43132 5.65342
Spine1  5.77148 2.137 -1.44193
HEad  -11.1893 -4.62253 -6.22557
LeftShoulder1  -0.511927 4.78587 -33.7722
LeftArm  4.7217 6.68432 -42.1044
LeftForeArm  29.4848 -15.2555 -7.1683
LeftHand  -0.0746838 9.48755 -0.608366
RightShoulder  -1.38677 -7.03085 32.7992
RightArm  20.052 0.87933 44.6285
RightForeArm  17.3442 10.0434 8.28284
RightHand  -0.0218471 3.68131 -0.525134
LeftUpLeg  -0.545871 2.31147 1.84539
LeftLeg  13.3099 1.45032 1.06011
LeftFoot  -8.84924 0.0534294 -0.0732582
LeftToes  2.52475e-009 -1.26109e-010 3.16044e-011
27
root  88.5235 38.5713 -5.01084 -122.202 -89.6828 118.016
RightUpLeg  -2.32442 -5.78144 -1.57896
RightLeg  17.203 2.75588 -0.0180125
RightFoot  -11.5304 -0.0818711 -1.84262
RightToes  -3.0268e-009 0 -3.6325e-017
Spine  4.02833 1.32599 7.62129
Spine1  5.16313 2.28556 -1.56298
HEad  -10.9588 -5.31828 -5.73959
LeftShoulder1  -0.485312 4.72565 -33.5698
LeftArm  5.79352 6.6116 -42.4774
LeftForeArm  29.0133 -15.8021 -6.97934
LeftHand  -0.0655751 9.83566 -0.300024
RightShoulder  -1.39575 -7.03687 32.9831
RightArm  20.5625 0.976578 44.1411
RightForeArm  16.1617 10.5632 8.19734
RightHand  -0.0371472 4.0173 -0.740642
LeftUpLeg  -2.58721 0.749778 3.00573
LeftLeg  18.6592 2.62288 1.281
LeftFoot  -10.598 0.0721411 -1.26329
LeftToes  2.52475e-009 -1.26109e-010 3.16044e-011
28
root  88.4538 38.3678 -5.13449 -14.6738 -89.0041 10.0802
RightUpLeg  -2.4388 -6.45618 -1.13546
RightLeg  18.9244 2.45518 0.226533
RightFoot  -12.9065 -0.116689 -2.19675
RightToes  -3.0268e-009 0 -3.6325e-017
Spine  5.34987 1.01391 8.70776
Spine1  4.52423 2.12174 -1.27386
HEad  -10.1186 -6.06186 -4.97032
LeftShoulder1  -0.480399 4.70872 -33.7142
LeftArm  7.33924 6.7312 -42.3473
LeftForeArm  26.9304 -16.7688 -6.58195
LeftHand  -0.0742116 10.4206 -0.409908
RightShoulder  -1.40935 -7.0599 33.1085
RightArm  21.0644 1.63824 43.8204
RightForeArm  15.5102 10.5851 8.32692
RightHand  -0.0385816 4.7878 -0.764419
LeftUpLeg  -5.39361 -0.549007 3.64165
LeftLeg  24.8738 2.82312 1.74076
LeftFoot  -10.7315 0.0825397 -3.06312
LeftToes  2.52475e-009 -1.26109e-010 3.16044e-011
29
root  88.4236 38.2125 -5.25876 2.68461 -88.8205 -7.50422
RightUpLeg  -2.87217 -6.49579 -0.768905
RightLeg  20.4976 2.19737 0.25923
RightFoot  -13.8754 -0.141294 -2.13686
RightToes  -3.0268e-009 0 -3.6325e-017
Spine  6.4366 1.04667 9.67358
Spine1  4.1867 2.3839 -1.36704
HEad  -9.48162 -6.96267 -3.79714
LeftShoulder1  -0.445693 4.6289 -33.4676
LeftArm  7.75413 6.85347 -42.6191
LeftForeArm  26.4146 -17.5244 -6.13053
LeftHand  -0.0834255 9.01081 -1.00655
RightShoulder  -1.42454 -7.09003 33.1994
RightArm  21.9061 2.88894 43.877
RightForeArm  15.0863 10.4066 8.65243
RightHand  -0.128661 3.52189 -1.90471
LeftUpLeg  -8.46804 -0.832178 4.28195
LeftLeg  30.9716 2.10968 1.70135
LeftFoot  -9.45616 0.162903 -6.20613
LeftToes  2.52475e-009 -1.26109e-010 3.16044e-011
30
root  88.2463 38.0856 -5.37032 5.96519 -87.3751 -11.1154
RightUpLeg  -2.37776 -7.63117 -0.602538
RightLeg  21.2652 1.82208 0.339823
RightFoot  -14.9437 -0.173705 -2.31083
RightToes  -3.0268e-009 0 -3.6325e-017
Spine  6.70752 0.754529 10.3917
Spine1  4.30501 2.18709 -1.06961
HEad  -8.26278 -8.15417 -2.76087
LeftShoulder1  -0.426239 4.57995 -33.4616
LeftArm  7.96996 6.83698 -42.6051
LeftForeArm  25.6847 -17.7012 -6.05234
LeftHand  -0.0709025 8.86825 -0.741242
RightShoulder  -1.43953 -7.13381 33.1368
RightArm  21.5595 3.08155 43.7379
RightForeArm  15.0185 10.3725 8.58144
RightHand  -0.0909782 3.26044 -1.47176
LeftUpLeg  -11.7678 -1.83796 4.64077
LeftLeg  37.056 2.09874 2.08329
LeftFoot  -6.5118 0.356625 -7.68549
LeftToes  2.52475e-009 -1.26109e-010 3.16044e-011
